<?xml version="1.0" encoding="utf-8"?>
<!-- Generator: Adobe Illustrator 17.0.2, SVG Export Plug-In . SVG Version: 6.00 Build 0)  -->
<!DOCTYPE svg PUBLIC "-//W3C//DTD SVG 1.1//EN" "http://www.w3.org/Graphics/SVG/1.1/DTD/svg11.dtd">
<svg version="1.1" id="Layer_1" xmlns="http://www.w3.org/2000/svg" xmlns:xlink="http://www.w3.org/1999/xlink" x="0px" y="0px"
	 width="21.164px" height="16.962px" viewBox="0 0 21.164 16.962" enable-background="new 0 0 21.164 16.962" xml:space="preserve">
<g>
	<path fill="#EDAA4E" d="M10.558,2c2.486,0,4.644,1.481,5.737,3.481h-2.629l3.749,3.492l3.749-3.492h-2.679
		C17.261,2.481,14.18,0,10.558,0C6.921,0,3.827,2.269,2.613,5.481h2.184C5.884,3.404,8.056,2,10.558,2z"/>
	<path fill="#EDAA4E" d="M10.558,14.962c-2.486,0-4.645-1.481-5.738-3.481h2.677L3.749,7.989L0,11.481h2.631
		c1.224,3,4.305,5.481,7.927,5.481c3.637,0,6.731-2.269,7.945-5.481h-2.184C15.232,13.558,13.06,14.962,10.558,14.962z"/>
</g>
</svg>
