<?xml version="1.0" encoding="utf-8"?>
<!-- Generator: Adobe Illustrator 18.1.0, SVG Export Plug-In . SVG Version: 6.00 Build 0)  -->
<svg version="1.1" id="Layer_1" xmlns="http://www.w3.org/2000/svg" xmlns:xlink="http://www.w3.org/1999/xlink" x="0px" y="0px"
	 viewBox="-583 582.2 31.3 36.8" enable-background="new -583 582.2 31.3 36.8" xml:space="preserve">
<path fill="#4C4C4C" d="M-553.7,605.9l-5.4-1.2l-0.9,3.8l3.2,0.7c-2.2,3.7-6.2,6-10.6,5.9l3.5-19.2c3.5-0.4,6.2-3.3,6.2-6.9
	c0-3.8-3.1-6.9-6.9-6.9c-3.8,0-6.9,3.1-6.9,6.9c0,2.7,1.6,5,3.8,6.2l-3.5,19.2c-4.3-1.5-7.3-5.4-7.8-9.8l3.8,0.8l0.8-3.8l-5.1-1
	l-3.1-0.6c-1.8,8.6,3.7,17,12.3,18.7c1.1,0.2,2.2,0.3,3.3,0.3c3.1,0,6-0.9,8.7-2.6c3.5-2.3,6-5.9,6.8-10L-553.7,605.9z M-564.6,586
	c1.7,0,3,1.4,3,3c0,1.7-1.4,3-3,3c-1.7,0-3-1.4-3-3C-567.7,587.4-566.3,586-564.6,586z"/>
</svg>
