<?xml version="1.0" encoding="UTF-8" standalone="no"?>
<svg width="31px" height="36px" viewBox="0 0 31 36" version="1.1" xmlns="http://www.w3.org/2000/svg" xmlns:xlink="http://www.w3.org/1999/xlink">
    <defs></defs>
    <g stroke="none" stroke-width="1" fill="none" fill-rule="evenodd">
        <g transform="translate(-135.000000, -27.000000)" fill="#4990E2">
            <path d="M163.984292,50.2355714 L158.783484,49.0327987 L157.945363,52.6570237 L161.023454,53.3689745 C158.930863,56.9499378 155.012965,59.1921973 150.791511,59.0949488 L154.170144,40.6111 C157.524556,40.2724775 160.151591,37.432507 160.151591,33.990608 C160.151591,30.3211931 157.166411,27.3360127 153.496996,27.3360127 C149.827581,27.3360127 146.842401,30.3211931 146.842401,33.990608 C146.842401,36.5864328 148.339932,38.8341151 150.513503,39.9304808 L147.134869,58.4139681 C143.00006,56.9266801 140.117791,53.2146061 139.590456,48.961459 L143.26204,49.695342 L143.991223,46.0474978 L139.120723,45.0739279 L136.100475,44.447416 C134.389407,52.6906449 139.703612,60.789628 147.94684,62.500937 C148.990545,62.7174867 150.039431,62.8241347 151.081208,62.8241347 C154.025295,62.8241347 156.908287,61.969143 159.426867,60.3160385 C162.836591,58.0784787 165.171038,54.6471842 166,50.6542101 L163.984292,50.2355714 L163.984292,50.2355714 Z M153.496996,31.0555581 C155.115395,31.0555581 156.431925,32.3723297 156.431925,33.990608 C156.431925,35.6087657 155.115395,36.9255373 153.496996,36.9255373 C151.878477,36.9255373 150.561946,35.6087657 150.561946,33.990608 C150.561946,32.3723297 151.878477,31.0555581 153.496996,31.0555581 L153.496996,31.0555581 Z"></path>
        </g>
    </g>
</svg>