<?xml version="1.0" encoding="utf-8"?>
<!-- Generator: Adobe Illustrator 17.0.2, SVG Export Plug-In . SVG Version: 6.00 Build 0)  -->
<!DOCTYPE svg PUBLIC "-//W3C//DTD SVG 1.1//EN" "http://www.w3.org/Graphics/SVG/1.1/DTD/svg11.dtd">
<svg version="1.1" id="Layer_1" xmlns="http://www.w3.org/2000/svg" xmlns:xlink="http://www.w3.org/1999/xlink" x="0px" y="0px"
	 width="31.347px" height="36.812px" viewBox="0 0 31.347 36.812" enable-background="new 0 0 31.347 36.812" xml:space="preserve">
<path fill="#FFFFFF" d="M29.256,23.754l-5.395-1.248l-0.869,3.759l3.193,0.738c-2.171,3.715-6.235,6.04-10.614,5.94l3.505-19.173
	c3.48-0.351,6.204-3.297,6.204-6.867C25.28,3.096,22.184,0,18.378,0s-6.903,3.096-6.903,6.903c0,2.693,1.553,5.024,3.808,6.161
	l-3.505,19.173c-4.289-1.543-7.279-5.393-7.826-9.805l3.808,0.761l0.756-3.784l-5.052-1.01l-3.133-0.65
	C-1.443,26.3,4.07,34.701,12.621,36.476c1.083,0.225,2.171,0.335,3.251,0.335c3.054,0,6.044-0.887,8.657-2.602
	c3.537-2.321,5.958-5.88,6.818-10.022L29.256,23.754z M18.378,3.858c1.679,0,3.044,1.366,3.044,3.044s-1.366,3.044-3.044,3.044
	s-3.044-1.366-3.044-3.044S16.699,3.858,18.378,3.858z"/>
</svg>
