<?xml version="1.0" encoding="utf-8"?>
<!-- Generator: Adobe Illustrator 17.0.2, SVG Export Plug-In . SVG Version: 6.00 Build 0)  -->
<!DOCTYPE svg PUBLIC "-//W3C//DTD SVG 1.1//EN" "http://www.w3.org/Graphics/SVG/1.1/DTD/svg11.dtd">
<svg version="1.1" id="Layer_1" xmlns="http://www.w3.org/2000/svg" xmlns:xlink="http://www.w3.org/1999/xlink" x="0px" y="0px"
	 width="31px" height="16.962px" viewBox="0 0 31 16.962" enable-background="new 0 0 31 16.962" xml:space="preserve">
<g display="none">
	<path display="inline" fill="#248AF2" d="M15.5,2c2.486,0,4.644,1.481,5.737,3.481h-2.629l3.749,3.492l3.749-3.492h-2.679
		C22.203,2.481,19.122,0,15.5,0c-3.637,0-6.731,2.269-7.945,5.481h2.184C10.826,3.404,12.998,2,15.5,2z"/>
	<path display="inline" fill="#248AF2" d="M15.5,14.962c-2.486,0-4.645-1.481-5.738-3.481h2.677L8.691,7.989l-3.749,3.492h2.631
		c1.224,3,4.305,5.481,7.927,5.481c3.637,0,6.731-2.269,7.945-5.481h-2.184C20.174,13.558,18.002,14.962,15.5,14.962z"/>
</g>
<g>
	<path fill="#CCCCCC" d="M15.524,2c3.574,0,6.481,2.907,6.481,6.481s-2.907,6.481-6.481,6.481s-6.481-2.907-6.481-6.481
		S11.951,2,15.524,2 M15.524,0C10.84,0,7.043,3.797,7.043,8.481c0,4.684,3.797,8.481,8.481,8.481s8.481-3.797,8.481-8.481
		C24.005,3.797,20.208,0,15.524,0L15.524,0z"/>
</g>
<line fill="none" stroke="#CCCCCC" stroke-width="2" stroke-miterlimit="10" x1="8" y1="8.481" x2="0" y2="8.481"/>
<line fill="none" stroke="#CCCCCC" stroke-width="2" stroke-miterlimit="10" x1="31" y1="8.481" x2="23" y2="8.481"/>
</svg>
