<?xml version="1.0" encoding="utf-8"?>
<!-- Generator: Adobe Illustrator 17.0.2, SVG Export Plug-In . SVG Version: 6.00 Build 0)  -->
<!DOCTYPE svg PUBLIC "-//W3C//DTD SVG 1.1//EN" "http://www.w3.org/Graphics/SVG/1.1/DTD/svg11.dtd">
<svg version="1.1" id="Layer_1" xmlns="http://www.w3.org/2000/svg" xmlns:xlink="http://www.w3.org/1999/xlink" x="0px" y="0px"
	 width="80.371px" height="28.901px" viewBox="0 0 80.371 28.901" enable-background="new 0 0 80.371 28.901" xml:space="preserve">
<g>
	<path fill="#FFFFFF" d="M0.955,19.13c0.796,0.445,2.323,1.05,3.724,1.05c1.496-0.032,2.388-0.891,2.388-1.91
		c0-0.987-0.509-1.592-2.037-2.388c-1.782-0.923-3.056-2.26-3.056-4.042c0-2.992,2.61-5.093,6.271-5.093
		c1.623,0,2.96,0.382,3.66,0.795l-0.955,2.674c-0.572-0.318-1.623-0.7-2.896-0.7c-1.4,0-2.355,0.764-2.355,1.814
		c0,0.859,0.701,1.464,2.006,2.132c1.687,0.923,3.215,2.196,3.215,4.17c0,3.406-2.865,5.284-6.589,5.284
		c-1.814,0-3.501-0.509-4.329-1.114L0.955,19.13z"/>
	<path fill="#FFFFFF" d="M13.21,22.599L17.475,0h3.725l-1.814,9.421h0.063c1.306-1.623,3.024-2.673,5.188-2.673
		c2.133,0,3.883,1.337,3.883,4.169c0,0.796-0.095,1.878-0.254,2.737l-1.719,8.944h-3.692l1.655-8.689
		c0.095-0.605,0.19-1.273,0.19-2.037c0-1.178-0.541-2.101-1.941-2.101c-1.814,0-3.852,2.165-4.456,5.443l-1.4,7.384H13.21z"/>
	<path fill="#FFFFFF" d="M30.717,22.599l2.929-15.501h3.724l-2.96,15.501H30.717z M34.25,2.896c0-1.337,1.019-2.26,2.228-2.26
		c1.146,0,1.974,0.827,1.974,2.005c-0.031,1.369-1.05,2.229-2.292,2.229C35.014,4.87,34.218,4.042,34.25,2.896z"/>
	<path fill="#FFFFFF" d="M37.337,28.901l3.023-16.042c0.35-1.846,0.7-4.17,0.892-5.761h3.342l-0.351,2.546h0.064
		c1.336-1.846,3.246-2.896,5.252-2.896c3.342,0,4.901,2.737,4.901,5.761c0,5.411-3.756,10.44-9.04,10.44
		c-1.432,0-2.515-0.318-3.087-0.668h-0.063l-1.242,6.621H37.337z M42.875,19.321c0.573,0.477,1.4,0.764,2.482,0.764
		c2.865,0,5.221-3.819,5.221-7.289c0-1.432-0.637-3.024-2.451-3.024c-1.878,0-3.915,2.133-4.584,5.761L42.875,19.321z"/>
	<path fill="#FFFFFF" d="M61.814,22.599l2.929-15.501h3.724l-2.96,15.501H61.814z M65.348,2.896c0-1.337,1.019-2.26,2.228-2.26
		c1.146,0,1.974,0.827,1.974,2.005c-0.031,1.369-1.05,2.229-2.292,2.229C66.111,4.87,65.315,4.042,65.348,2.896z"/>
	<path fill="#FFFFFF" d="M77.666,2.833L76.87,7.098h3.501l-0.573,2.865h-3.469l-1.241,6.271c-0.128,0.732-0.255,1.527-0.255,2.196
		c0,0.828,0.382,1.369,1.368,1.369c0.446,0,0.892,0,1.273-0.063l-0.35,2.896c-0.541,0.191-1.528,0.318-2.419,0.318
		c-2.547,0-3.692-1.4-3.692-3.183c0-0.891,0.095-1.75,0.35-2.896L72.7,9.963H70.6l0.541-2.865h2.101l0.637-3.342L77.666,2.833z"/>
</g>
</svg>
