<?xml version="1.0" encoding="utf-8"?>
<!-- Generator: Adobe Illustrator 18.1.0, SVG Export Plug-In . SVG Version: 6.00 Build 0)  -->
<svg version="1.1" id="Layer_1" xmlns="http://www.w3.org/2000/svg" xmlns:xlink="http://www.w3.org/1999/xlink" x="0px" y="0px"
	 viewBox="-559 586.1 80.4 28.9" enable-background="new -559 586.1 80.4 28.9" xml:space="preserve">
<g>
	<path fill="#4C4C4C" d="M-558,605.2c0.8,0.4,2.3,1,3.7,1c1.5,0,2.4-0.9,2.4-1.9c0-1-0.5-1.6-2-2.4c-1.8-0.9-3.1-2.3-3.1-4
		c0-3,2.6-5.1,6.3-5.1c1.6,0,3,0.4,3.7,0.8l-1,2.7c-0.6-0.3-1.6-0.7-2.9-0.7c-1.4,0-2.4,0.8-2.4,1.8c0,0.9,0.7,1.5,2,2.1
		c1.7,0.9,3.2,2.2,3.2,4.2c0,3.4-2.9,5.3-6.6,5.3c-1.8,0-3.5-0.5-4.3-1.1L-558,605.2z"/>
	<path fill="#4C4C4C" d="M-545.8,608.7l4.3-22.6h3.7l-1.8,9.4h0.1c1.3-1.6,3-2.7,5.2-2.7c2.1,0,3.9,1.3,3.9,4.2
		c0,0.8-0.1,1.9-0.3,2.7l-1.7,8.9h-3.7l1.7-8.7c0.1-0.6,0.2-1.3,0.2-2c0-1.2-0.5-2.1-1.9-2.1c-1.8,0-3.9,2.2-4.5,5.4l-1.4,7.4
		L-545.8,608.7L-545.8,608.7z"/>
	<path fill="#4C4C4C" d="M-528.3,608.7l2.9-15.5h3.7l-3,15.5H-528.3z M-524.8,589c0-1.3,1-2.3,2.2-2.3c1.1,0,2,0.8,2,2
		c0,1.4-1.1,2.2-2.3,2.2C-524,591-524.8,590.1-524.8,589z"/>
	<path fill="#4C4C4C" d="M-521.7,615l3-16c0.4-1.8,0.7-4.2,0.9-5.8h3.3l-0.4,2.5h0.1c1.3-1.8,3.2-2.9,5.3-2.9c3.3,0,4.9,2.7,4.9,5.8
		c0,5.4-3.8,10.4-9,10.4c-1.4,0-2.5-0.3-3.1-0.7h-0.1l-1.2,6.6L-521.7,615L-521.7,615z M-516.1,605.4c0.6,0.5,1.4,0.8,2.5,0.8
		c2.9,0,5.2-3.8,5.2-7.3c0-1.4-0.6-3-2.5-3c-1.9,0-3.9,2.1-4.6,5.8L-516.1,605.4z"/>
	<path fill="#4C4C4C" d="M-497.2,608.7l2.9-15.5h3.7l-3,15.5H-497.2z M-493.7,589c0-1.3,1-2.3,2.2-2.3c1.1,0,2,0.8,2,2
		c0,1.4-1,2.2-2.3,2.2C-492.9,591-493.7,590.1-493.7,589z"/>
	<path fill="#4C4C4C" d="M-481.3,588.9l-0.8,4.3h3.5l-0.6,2.9h-3.5l-1.2,6.3c-0.1,0.7-0.3,1.5-0.3,2.2c0,0.8,0.4,1.4,1.4,1.4
		c0.4,0,0.9,0,1.3-0.1l-0.3,2.9c-0.5,0.2-1.5,0.3-2.4,0.3c-2.5,0-3.7-1.4-3.7-3.2c0-0.9,0.1-1.8,0.4-2.9l1.3-6.9h-2.1l0.5-2.9h2.1
		l0.6-3.3L-481.3,588.9z"/>
</g>
</svg>
