<?xml version="1.0" encoding="utf-8"?>
<!DOCTYPE svg PUBLIC "-//W3C//DTD SVG 1.1 Tiny//EN" "http://www.w3.org/Graphics/SVG/1.1/DTD/svg11-tiny.dtd">
<svg xmlns="http://www.w3.org/2000/svg" xmlns:xlink="http://www.w3.org/1999/xlink" version="1.1" baseProfile="tiny" x="0px" y="0px" width="480px" height="480px" viewBox="0 0 480 480" xml:space="preserve">
  <g id="refresh" fill="#FFF">
    <path d="M383.434,172.502c-25.336-58.241-81.998-95.648-145.861-95.648c-65.309,0-125,40.928-148.514,101.827l49.5,19.117   c15.672-40.617,55.469-67.894,99.014-67.894c42.02,0,79.197,24.386,96.408,62.332l-36.117,14.428l92.352,53.279l27.01-100.933   L383.434,172.502z"/>
    <path d="M237.573,342.101c-41.639,0-79.615-25.115-96.592-62.819l35.604-13.763l-91.387-52.119l-27.975,98.249l34.08-13.172   c24.852,58.018,82.859,96.671,146.27,96.671c65.551,0,123.598-39.336,147.871-100.196l-49.268-19.652   C319.981,315.877,281.288,342.101,237.573,342.101z"/>
  </g>
</svg>
