<?xml version="1.0" encoding="utf-8"?>
<!-- Generator: Adobe Illustrator 17.0.2, SVG Export Plug-In . SVG Version: 6.00 Build 0)  -->
<!DOCTYPE svg PUBLIC "-//W3C//DTD SVG 1.1//EN" "http://www.w3.org/Graphics/SVG/1.1/DTD/svg11.dtd">
<svg version="1.1" xmlns="http://www.w3.org/2000/svg" xmlns:xlink="http://www.w3.org/1999/xlink" x="0px" y="0px" width="18px"
	 height="18px" viewBox="0 0 18 18" enable-background="new 0 0 18 18" xml:space="preserve">
<g id="Layer_1">
	<g>
		<path fill="#FFFFFF" d="M15.667,10.042l1.729,1.5c0.139,0.098,0.174,0.229,0.104,0.396c-0.348,1.07-0.917,2.056-1.708,2.959
			c-0.111,0.139-0.243,0.174-0.396,0.104l-2.166-0.75c-0.556,0.445-1.153,0.792-1.792,1.042L11,17.542
			c-0.028,0.167-0.125,0.264-0.292,0.292C10.111,17.945,9.542,18,9,18s-1.111-0.055-1.708-0.166C7.125,17.806,7.027,17.709,7,17.542
			l-0.438-2.25c-0.681-0.264-1.278-0.611-1.792-1.042L2.604,15c-0.153,0.07-0.285,0.035-0.396-0.104
			c-0.792-0.903-1.361-1.889-1.708-2.959c-0.07-0.166-0.035-0.298,0.104-0.396l1.729-1.5C2.278,9.75,2.25,9.403,2.25,9
			s0.028-0.75,0.083-1.042l-1.729-1.5C0.465,6.362,0.43,6.229,0.5,6.063c0.347-1.069,0.917-2.055,1.708-2.958
			C2.319,2.966,2.451,2.931,2.604,3l2.167,0.75c0.514-0.43,1.111-0.778,1.792-1.042L7,0.459c0.027-0.167,0.125-0.264,0.292-0.292
			c1.139-0.236,2.277-0.236,3.416,0C10.875,0.195,10.972,0.292,11,0.459l0.438,2.25c0.639,0.25,1.236,0.597,1.792,1.042L15.396,3
			c0.153-0.069,0.285-0.035,0.396,0.104c0.791,0.903,1.36,1.889,1.708,2.958c0.069,0.167,0.034,0.299-0.104,0.396l-1.729,1.5
			C15.722,8.25,15.75,8.598,15.75,9S15.722,9.75,15.667,10.042z M9,12.375c0.931,0,1.726-0.329,2.386-0.989
			c0.659-0.659,0.989-1.455,0.989-2.385c0-0.93-0.33-1.726-0.989-2.385c-0.66-0.66-1.455-0.99-2.386-0.99s-1.726,0.33-2.385,0.99
			C5.955,7.275,5.625,8.07,5.625,9c0,0.945,0.326,1.743,0.979,2.396C7.257,12.049,8.056,12.375,9,12.375z"/>
	</g>
</g>
<g id="Layer_1_copy" display="none">
	<g display="inline">
		<path fill="#FFFFFF" d="M13.872,2.629h-1.479c0.229,0.521,0.354,1.125,0.354,1.791c0,2.479-1.771,4.124-3.958,4.208
			c-0.646,1.021-0.479,1.624,0.459,2.249c2.582,0.104,4.624,1.604,4.624,3.562c0,2.083-2.188,3.562-4.874,3.562
			c-2.687,0-4.874-1.499-4.874-3.562c0-1.333,0.917-2.437,2.312-3.041c-1.312-1.291-0.854-2.582,0.062-3.332
			c-1.208-0.688-2-1.979-2-3.645c0-2.541,1.854-4.228,4.124-4.228c0.833,0,1.604,0.229,2.249,0.625c2.229-0.146,3-0.812,3-0.812
			V2.629z M6.749,14.438c0,0.729,0.875,1.312,2.25,1.312c1.374,0,2.249-0.583,2.249-1.312c0-0.729-0.875-1.312-2.249-1.312
			C7.623,13.126,6.749,13.71,6.749,14.438z M10.122,4.316c0-1.312-0.666-2.062-1.499-2.062s-1.5,0.75-1.5,2.062
			s0.667,2.062,1.5,2.062S10.122,5.628,10.122,4.316z"/>
	</g>
</g>
</svg>
