<?xml version="1.0" encoding="utf-8"?>
<!-- Generator: Adobe Illustrator 18.0.0, SVG Export Plug-In . SVG Version: 6.00 Build 0)  -->
<!DOCTYPE svg PUBLIC "-//W3C//DTD SVG 1.1//EN" "http://www.w3.org/Graphics/SVG/1.1/DTD/svg11.dtd">
<svg version="1.1" id="Layer_1" xmlns="http://www.w3.org/2000/svg" xmlns:xlink="http://www.w3.org/1999/xlink" x="0px" y="0px"
	 viewBox="0 0 60.4 71.8" enable-background="new 0 0 60.4 71.8" xml:space="preserve">
<g>
	<path d="M34.7,11.7V5.9h3.1c1.6,0,2.9-1.3,2.9-2.9c0-1.6-1.3-2.9-2.9-2.9H22.6c-1.6,0-2.9,1.3-2.9,2.9c0,1.6,1.3,2.9,2.9,2.9h3.1
		v5.9C11.2,13.9,0,26.5,0,41.6c0,16.7,13.5,30.2,30.2,30.2s30.2-13.5,30.2-30.2C60.4,26.5,49.3,13.9,34.7,11.7z M30.2,64.3
		c-12.5,0-22.7-10.2-22.7-22.7c0-12.5,10.2-22.7,22.7-22.7s22.7,10.2,22.7,22.7C52.9,54.1,42.7,64.3,30.2,64.3z"/>
	<path d="M44.9,48.4l-12-8.1V26.4c0-0.3-0.1-0.7-0.4-0.9c-0.2-0.2-0.6-0.4-0.9-0.4h-3.3c-0.3,0-0.7,0.1-0.9,0.4
		c-0.2,0.2-0.4,0.6-0.4,0.9v16.4c0,0.3,0.1,0.7,0.4,0.9c0.1,0.1,0.2,0.2,0.3,0.2l13.9,9.3c0.2,0.1,0.5,0.2,0.7,0.2
		c0.1,0,0.2,0,0.3,0c0.3-0.1,0.6-0.3,0.8-0.6l1.8-2.8C45.6,49.5,45.4,48.8,44.9,48.4z"/>
</g>
</svg>
