<?xml version="1.0" encoding="UTF-8" standalone="no"?>
<svg width="40px" height="40px" viewBox="0 0 40 40" version="1.1" xmlns="http://www.w3.org/2000/svg" xmlns:xlink="http://www.w3.org/1999/xlink" xmlns:sketch="http://www.bohemiancoding.com/sketch/ns">
    <!-- Generator: Sketch 3.0.2 (7799) - http://www.bohemiancoding.com/sketch -->
    <title>unknown</title>
    <description>Created with Sketch.</description>
    <defs></defs>
    <g id="Page-1" stroke="none" stroke-width="1" fill="none" fill-rule="evenodd" sketch:type="MSPage">
        <g id="unknown" sketch:type="MSArtboardGroup" fill="#CCCCCC">
            <path d="M15.0013334,17.28 L16.8713334,17.28 C16.8713334,16.7666641 16.9299994,16.2900022 17.0473334,15.85 C17.1646673,15.4099978 17.3516654,15.0286683 17.6083334,14.706 C17.8650013,14.3833317 18.1839981,14.1266676 18.5653334,13.936 C18.9466686,13.7453324 19.4013307,13.65 19.9293334,13.65 C20.7213373,13.65 21.348331,13.8773311 21.8103334,14.332 C22.2723357,14.7866689 22.5326664,15.4173293 22.5913334,16.224 C22.6206668,16.7666694 22.5546675,17.2286648 22.3933334,17.61 C22.2319992,17.9913352 22.015668,18.3396651 21.7443334,18.655 C21.4729987,18.9703349 21.1796683,19.2709986 20.8643334,19.557 C20.5489984,19.8430014 20.2483348,20.154665 19.9623334,20.492 C19.6763319,20.829335 19.4343343,21.2143312 19.2363334,21.647 C19.0383324,22.0796688 18.9246668,22.6039969 18.8953334,23.22 L18.8953334,24.254 L20.7653334,24.254 L20.7653334,23.396 C20.7653334,23.0146648 20.8203328,22.6736682 20.9303334,22.373 C21.0403339,22.0723318 21.1869991,21.7936679 21.3703334,21.537 C21.5536676,21.280332 21.7589989,21.0383345 21.9863334,20.811 C22.2136678,20.5836655 22.4446655,20.3600011 22.6793334,20.14 C22.9140012,19.9053322 23.1449989,19.6633346 23.3723334,19.414 C23.5996678,19.1646654 23.8013325,18.8933348 23.9773334,18.6 C24.1533342,18.3066652 24.2963328,17.9803351 24.4063334,17.621 C24.5163339,17.2616649 24.5713334,16.8546689 24.5713334,16.4 C24.5713334,15.6959965 24.4576678,15.0726694 24.2303334,14.53 C24.0029989,13.9873306 23.6840021,13.5290019 23.2733334,13.155 C22.8626646,12.7809981 22.3750028,12.495001 21.8103334,12.297 C21.2456639,12.098999 20.6186701,12 19.9293334,12 C19.1666629,12 18.4773364,12.1319987 17.8613334,12.396 C17.2453303,12.6600013 16.7246688,13.030331 16.2993334,13.507 C15.8739979,13.9836691 15.5476678,14.5446634 15.3203334,15.19 C15.0929989,15.8353366 14.9866666,16.5319963 15.0013334,17.28 L15.0013334,17.28 Z" id="?" sketch:type="MSShapeGroup"></path>
            <circle id="Oval-4" stroke="#CCCCCC" sketch:type="MSShapeGroup" cx="20" cy="28" r="1"></circle>
        </g>
    </g>
</svg>